<svg xmlns="http://www.w3.org/2000/svg" xmlns:xlink="http://www.w3.org/1999/xlink" width="150" zoomAndPan="magnify" viewBox="0 0 112.5 37.5" height="50" preserveAspectRatio="xMidYMid meet" version="1.0"><defs><g/><clipPath id="8300f4e0fe"><path d="M 13 6.113281 L 27 6.113281 L 27 10 L 13 10 Z M 13 6.113281 " clip-rule="nonzero"/></clipPath><clipPath id="2a35afd160"><path d="M 4.210938 7 L 30 7 L 30 27.671875 L 4.210938 27.671875 Z M 4.210938 7 " clip-rule="nonzero"/></clipPath><clipPath id="a0baa8074e"><path d="M 26 11 L 32.460938 11 L 32.460938 15 L 26 15 Z M 26 11 " clip-rule="nonzero"/></clipPath><clipPath id="21bbea4bc1"><path d="M 16 22 L 22 22 L 22 27.671875 L 16 27.671875 Z M 16 22 " clip-rule="nonzero"/></clipPath><clipPath id="99258a8841"><path d="M 4.210938 13 L 19 13 L 19 19 L 4.210938 19 Z M 4.210938 13 " clip-rule="nonzero"/></clipPath><clipPath id="c25fb2cf06"><path d="M 26 11 L 32.460938 11 L 32.460938 14 L 26 14 Z M 26 11 " clip-rule="nonzero"/></clipPath><clipPath id="4a16c9ce6c"><path d="M 25 11 L 32.460938 11 L 32.460938 16 L 25 16 Z M 25 11 " clip-rule="nonzero"/></clipPath><clipPath id="ef8bc51f52"><path d="M 26 11 L 32.460938 11 L 32.460938 15 L 26 15 Z M 26 11 " clip-rule="nonzero"/></clipPath></defs><path fill="#f9b006" d="M 28.523438 15.9375 C 28.523438 16.523438 28.464844 17.105469 28.347656 17.679688 C 28.234375 18.253906 28.0625 18.8125 27.835938 19.351562 C 27.609375 19.894531 27.328125 20.40625 27 20.894531 C 26.671875 21.382812 26.296875 21.832031 25.878906 22.246094 C 25.457031 22.660156 25 23.03125 24.507812 23.355469 C 24.015625 23.683594 23.496094 23.957031 22.945312 24.179688 C 22.398438 24.40625 21.832031 24.574219 21.253906 24.6875 C 20.671875 24.804688 20.082031 24.859375 19.488281 24.859375 C 18.898438 24.859375 18.308594 24.804688 17.726562 24.6875 C 17.144531 24.574219 16.582031 24.40625 16.03125 24.179688 C 15.484375 23.957031 14.964844 23.683594 14.472656 23.355469 C 13.976562 23.03125 13.523438 22.660156 13.101562 22.246094 C 12.683594 21.832031 12.308594 21.382812 11.980469 20.894531 C 11.648438 20.40625 11.371094 19.894531 11.144531 19.351562 C 10.917969 18.8125 10.746094 18.253906 10.628906 17.679688 C 10.515625 17.105469 10.457031 16.523438 10.457031 15.9375 C 10.457031 15.351562 10.515625 14.773438 10.628906 14.199219 C 10.746094 13.625 10.917969 13.066406 11.144531 12.523438 C 11.371094 11.984375 11.648438 11.46875 11.980469 10.980469 C 12.308594 10.496094 12.683594 10.042969 13.101562 9.628906 C 13.523438 9.214844 13.976562 8.847656 14.472656 8.519531 C 14.964844 8.195312 15.484375 7.921875 16.03125 7.695312 C 16.582031 7.472656 17.144531 7.300781 17.726562 7.1875 C 18.308594 7.074219 18.898438 7.015625 19.488281 7.015625 C 20.082031 7.015625 20.671875 7.074219 21.253906 7.1875 C 21.832031 7.300781 22.398438 7.472656 22.945312 7.695312 C 23.496094 7.921875 24.015625 8.195312 24.507812 8.519531 C 25 8.847656 25.457031 9.214844 25.878906 9.628906 C 26.296875 10.042969 26.671875 10.496094 27 10.980469 C 27.328125 11.46875 27.609375 11.984375 27.835938 12.523438 C 28.0625 13.066406 28.234375 13.625 28.347656 14.199219 C 28.464844 14.773438 28.523438 15.351562 28.523438 15.9375 Z M 28.523438 15.9375 " fill-opacity="1" fill-rule="nonzero"/><path fill="#000000" d="M 25.117188 8.960938 C 26.460938 10.621094 27.210938 12.761719 27.074219 15.050781 C 26.777344 19.972656 22.5 23.722656 17.519531 23.429688 C 15.585938 23.316406 13.832031 22.609375 12.429688 21.5 C 13.96875 23.410156 16.292969 24.6875 18.953125 24.84375 C 23.933594 25.136719 28.210938 21.386719 28.507812 16.46875 C 28.6875 13.457031 27.335938 10.707031 25.117188 8.960938 Z M 25.117188 8.960938 " fill-opacity="0.2" fill-rule="nonzero"/><path fill="#f9b006" d="M 29.132812 15.777344 C 29.136719 16.003906 29.132812 16.234375 29.117188 16.464844 C 28.832031 21.226562 25.066406 24.964844 20.410156 25.421875 C 25.035156 25.277344 28.867188 21.671875 29.148438 17.019531 C 29.171875 16.601562 29.167969 16.1875 29.132812 15.777344 Z M 29.132812 15.777344 " fill-opacity="1" fill-rule="nonzero"/><g clip-path="url(#8300f4e0fe)"><path fill="#f9b006" d="M 19.96875 6.429688 C 22.484375 6.578125 24.714844 7.660156 26.339844 9.316406 C 24.816406 7.496094 22.5625 6.28125 19.988281 6.128906 C 17.414062 5.980469 15.027344 6.921875 13.296875 8.550781 C 15.109375 7.097656 17.457031 6.28125 19.96875 6.429688 Z M 19.96875 6.429688 " fill-opacity="1" fill-rule="nonzero"/></g><g clip-path="url(#2a35afd160)"><path fill="#000000" d="M 29.136719 17.066406 C 29.132812 17.0625 27.789062 16.234375 27.667969 15.429688 C 27.65625 15.355469 27.632812 15.28125 27.621094 15.210938 C 27.628906 15.136719 27.632812 15.0625 27.636719 14.992188 C 27.640625 14.972656 27.640625 14.953125 27.640625 14.9375 L 27.644531 14.894531 C 27.644531 14.851562 27.648438 14.808594 27.652344 14.765625 C 27.652344 14.738281 27.652344 14.707031 27.652344 14.679688 L 27.65625 14.644531 C 27.65625 14.613281 27.65625 14.582031 27.660156 14.550781 C 27.660156 14.511719 27.660156 14.472656 27.660156 14.433594 C 27.660156 14.402344 27.664062 14.371094 27.664062 14.34375 C 27.664062 14.300781 27.664062 14.257812 27.664062 14.214844 C 27.664062 14.191406 27.664062 14.167969 27.664062 14.144531 C 27.660156 14.097656 27.660156 14.054688 27.660156 14.007812 L 27.660156 13.953125 C 27.65625 13.90625 27.65625 13.859375 27.652344 13.8125 L 27.652344 13.777344 C 27.652344 13.757812 27.648438 13.738281 27.648438 13.71875 L 27.402344 12.300781 C 27.265625 11.648438 27.003906 11.136719 26.753906 10.796875 C 26.734375 10.773438 26.714844 10.75 26.695312 10.722656 L 26.6875 10.710938 C 26.671875 10.691406 26.65625 10.671875 26.636719 10.652344 C 26.632812 10.644531 26.628906 10.636719 26.621094 10.632812 L 26.605469 10.613281 C 26.597656 10.601562 26.589844 10.59375 26.578125 10.582031 C 26.558594 10.558594 26.539062 10.539062 26.519531 10.515625 C 25.988281 9.941406 25.277344 9.625 24.523438 9.625 C 24.488281 9.625 24.449219 9.628906 24.398438 9.628906 C 24.390625 9.628906 24.382812 9.628906 24.371094 9.632812 L 24.367188 9.632812 C 24.332031 9.632812 24.300781 9.636719 24.265625 9.640625 L 24.257812 9.640625 C 24.253906 9.640625 24.246094 9.640625 24.242188 9.640625 C 24.199219 9.644531 24.15625 9.652344 24.117188 9.65625 L 24.097656 9.660156 C 24.0625 9.667969 24.027344 9.671875 23.992188 9.679688 L 23.964844 9.6875 C 23.882812 9.703125 23.796875 9.726562 23.71875 9.75 L 23.699219 9.757812 C 23.664062 9.769531 23.625 9.78125 23.589844 9.792969 L 23.578125 9.796875 C 23.5625 9.804688 23.546875 9.808594 23.53125 9.816406 C 23.507812 9.789062 23.476562 9.761719 23.445312 9.734375 L 23.441406 9.726562 C 23.425781 9.714844 23.410156 9.703125 23.394531 9.6875 L 23.386719 9.679688 C 23.351562 9.648438 23.316406 9.617188 23.28125 9.585938 L 23.269531 9.578125 C 23.253906 9.5625 23.238281 9.550781 23.21875 9.539062 L 23.210938 9.53125 C 23.191406 9.515625 23.171875 9.5 23.152344 9.484375 L 23.144531 9.476562 C 23.125 9.464844 23.109375 9.449219 23.089844 9.4375 L 23.074219 9.425781 C 23.058594 9.414062 23.039062 9.398438 23.019531 9.386719 L 23.011719 9.378906 C 22.992188 9.363281 22.96875 9.347656 22.949219 9.335938 L 22.933594 9.324219 C 22.914062 9.3125 22.898438 9.300781 22.878906 9.289062 L 22.863281 9.277344 C 22.816406 9.246094 22.769531 9.21875 22.726562 9.191406 L 22.703125 9.179688 C 22.6875 9.167969 22.667969 9.160156 22.648438 9.148438 L 22.628906 9.136719 C 22.605469 9.125 22.582031 9.109375 22.558594 9.097656 L 22.542969 9.089844 C 22.523438 9.082031 22.503906 9.070312 22.480469 9.058594 L 22.457031 9.046875 C 22.4375 9.039062 22.417969 9.027344 22.394531 9.019531 L 22.378906 9.011719 C 22.351562 9 22.328125 8.988281 22.300781 8.976562 L 22.28125 8.96875 C 22.257812 8.960938 22.238281 8.949219 22.21875 8.941406 L 22.191406 8.933594 C 22.167969 8.921875 22.144531 8.914062 22.117188 8.90625 L 22.109375 8.902344 C 22.082031 8.890625 22.054688 8.882812 22.023438 8.875 L 22 8.867188 C 21.976562 8.859375 21.957031 8.851562 21.933594 8.847656 L 21.910156 8.839844 C 21.878906 8.832031 21.851562 8.824219 21.820312 8.816406 L 21.8125 8.816406 C 21.785156 8.808594 21.757812 8.800781 21.730469 8.796875 L 21.703125 8.792969 C 21.679688 8.785156 21.65625 8.78125 21.632812 8.777344 L 21.609375 8.773438 C 21.578125 8.769531 21.546875 8.765625 21.515625 8.761719 L 21.496094 8.757812 C 21.46875 8.753906 21.445312 8.753906 21.417969 8.75 L 21.390625 8.746094 C 21.363281 8.746094 21.335938 8.742188 21.308594 8.742188 L 21.292969 8.738281 C 21.261719 8.738281 21.226562 8.738281 21.195312 8.738281 L 21.15625 8.738281 C 21.132812 8.738281 21.113281 8.738281 21.089844 8.738281 C 21.082031 8.738281 21.070312 8.738281 21.0625 8.738281 C 21.027344 8.738281 20.996094 8.742188 20.960938 8.742188 C 20.9375 8.746094 20.914062 8.746094 20.886719 8.75 C 20.855469 8.753906 20.824219 8.757812 20.789062 8.761719 C 20.78125 8.761719 20.773438 8.765625 20.765625 8.765625 L 20.757812 8.765625 C 20.734375 8.769531 20.710938 8.773438 20.6875 8.78125 C 20.675781 8.78125 20.664062 8.785156 20.652344 8.785156 C 20.628906 8.792969 20.605469 8.796875 20.585938 8.804688 L 20.574219 8.804688 C 20.566406 8.808594 20.5625 8.808594 20.554688 8.8125 C 20.523438 8.820312 20.492188 8.828125 20.464844 8.835938 L 20.449219 8.839844 C 20.421875 8.851562 20.390625 8.859375 20.363281 8.871094 C 20.355469 8.875 20.347656 8.875 20.339844 8.878906 L 20.332031 8.882812 C 20.308594 8.890625 20.289062 8.898438 20.265625 8.910156 C 20.253906 8.914062 20.246094 8.917969 20.234375 8.921875 C 20.210938 8.929688 20.191406 8.941406 20.167969 8.953125 L 20.160156 8.957031 C 20.152344 8.960938 20.144531 8.960938 20.140625 8.964844 C 20.109375 8.980469 20.082031 8.992188 20.054688 9.007812 L 20.046875 9.011719 C 20.015625 9.027344 19.988281 9.042969 19.957031 9.058594 L 19.929688 9.078125 C 19.910156 9.089844 19.886719 9.101562 19.867188 9.113281 C 19.855469 9.121094 19.847656 9.125 19.835938 9.132812 C 19.816406 9.144531 19.796875 9.160156 19.773438 9.171875 L 19.746094 9.191406 C 19.71875 9.210938 19.691406 9.230469 19.664062 9.25 L 19.652344 9.253906 L 19.648438 9.257812 C 19.625 9.277344 19.601562 9.296875 19.574219 9.316406 L 19.550781 9.335938 C 19.53125 9.351562 19.511719 9.367188 19.488281 9.382812 C 19.480469 9.390625 19.472656 9.398438 19.460938 9.40625 C 19.441406 9.421875 19.421875 9.4375 19.402344 9.453125 L 19.378906 9.476562 C 19.351562 9.5 19.328125 9.519531 19.300781 9.542969 L 19.296875 9.546875 C 19.269531 9.574219 19.242188 9.597656 19.214844 9.625 L 19.191406 9.648438 C 19.171875 9.664062 19.15625 9.683594 19.136719 9.699219 L 19.109375 9.726562 C 19.089844 9.746094 19.074219 9.765625 19.054688 9.785156 L 19.03125 9.808594 C 19.003906 9.835938 18.980469 9.859375 18.957031 9.886719 L 18.953125 9.890625 C 18.929688 9.917969 18.902344 9.945312 18.878906 9.972656 L 18.855469 10 C 18.839844 10.019531 18.820312 10.039062 18.804688 10.0625 L 18.78125 10.089844 C 18.761719 10.109375 18.746094 10.128906 18.730469 10.148438 L 18.707031 10.175781 C 18.683594 10.207031 18.660156 10.234375 18.636719 10.265625 C 18.613281 10.292969 18.589844 10.324219 18.566406 10.355469 L 18.546875 10.382812 C 18.53125 10.402344 18.511719 10.425781 18.496094 10.445312 L 18.472656 10.476562 C 18.457031 10.5 18.441406 10.519531 18.425781 10.542969 L 18.40625 10.570312 C 18.363281 10.628906 18.320312 10.691406 18.277344 10.753906 L 18.257812 10.78125 C 18.242188 10.804688 18.226562 10.828125 18.214844 10.847656 L 18.191406 10.878906 C 18.175781 10.902344 18.164062 10.925781 18.148438 10.945312 L 18.132812 10.972656 C 18.101562 10.953125 18.070312 10.9375 18.039062 10.921875 L 18.027344 10.917969 C 17.953125 10.878906 17.886719 10.84375 17.820312 10.8125 C 16.914062 10.375 16.210938 10.21875 16.179688 10.210938 L 15.984375 10.171875 L 15.855469 10.324219 C 15.832031 10.355469 15.804688 10.386719 15.773438 10.429688 L 15.757812 10.453125 C 15.726562 10.488281 15.703125 10.523438 15.679688 10.558594 L 15.675781 10.566406 C 15.652344 10.601562 15.628906 10.636719 15.609375 10.671875 L 15.597656 10.6875 C 15.574219 10.726562 15.554688 10.765625 15.535156 10.804688 L 15.53125 10.8125 C 15.488281 10.894531 15.453125 10.980469 15.417969 11.066406 C 15.40625 11.101562 15.394531 11.136719 15.382812 11.175781 C 15.148438 11.035156 14.910156 10.894531 14.675781 10.753906 L 14.667969 10.746094 C 14.574219 10.6875 14.476562 10.628906 14.382812 10.570312 L 14.363281 10.558594 C 14.164062 10.433594 13.964844 10.308594 13.773438 10.179688 L 13.757812 10.171875 C 13.664062 10.109375 13.566406 10.046875 13.46875 9.980469 L 13.433594 9.957031 C 13.335938 9.890625 13.238281 9.828125 13.144531 9.761719 L 13.113281 9.738281 C 12.910156 9.601562 12.710938 9.460938 12.511719 9.320312 L 12.46875 9.289062 C 12.371094 9.222656 12.273438 9.152344 12.179688 9.082031 L 12.128906 9.042969 C 12.027344 8.972656 11.929688 8.902344 11.832031 8.828125 L 11.804688 8.804688 C 11.707031 8.734375 11.609375 8.660156 11.511719 8.585938 L 11.480469 8.5625 C 11.378906 8.484375 11.28125 8.410156 11.183594 8.332031 L 11.128906 8.289062 C 11.03125 8.210938 10.933594 8.132812 10.835938 8.054688 L 10.785156 8.015625 C 10.683594 7.933594 10.578125 7.851562 10.476562 7.765625 L 9.867188 7.261719 L 9.851562 8.046875 C 9.832031 8.996094 10 9.78125 10.183594 10.34375 L 9.5625 9.894531 L 10.152344 11.195312 C 10.605469 12.199219 11.234375 12.789062 11.765625 13.132812 C 11.683594 13.140625 11.609375 13.148438 11.589844 13.148438 L 10.652344 13.113281 L 11.53125 13.523438 L 11.585938 13.414062 L 11.539062 13.523438 L 11.5625 13.535156 L 11.613281 13.425781 L 11.566406 13.535156 C 11.625 13.5625 11.71875 13.605469 11.832031 13.65625 C 11.800781 13.65625 11.765625 13.65625 11.730469 13.65625 L 11.699219 13.65625 C 11.652344 13.65625 11.601562 13.660156 11.550781 13.660156 L 11.183594 13.664062 C 11.121094 13.664062 11.058594 13.664062 10.996094 13.664062 C 9.003906 13.664062 7.027344 13.542969 5.128906 13.3125 L 4.222656 13.203125 L 4.703125 13.96875 C 5.402344 15.089844 6.195312 15.851562 6.828125 16.339844 L 5.863281 16.28125 L 7.25 17.175781 C 8.265625 17.828125 9.308594 18.160156 10.359375 18.160156 C 10.414062 18.160156 10.46875 18.160156 10.523438 18.15625 C 10.390625 18.265625 10.238281 18.382812 10.210938 18.402344 L 9.402344 18.875 L 10.335938 18.753906 C 10.429688 18.738281 11.253906 18.628906 11.734375 18.496094 C 11.804688 18.472656 11.875 18.453125 11.949219 18.429688 C 11.960938 18.425781 11.976562 18.421875 11.988281 18.417969 L 12.015625 18.410156 C 12.066406 18.394531 12.113281 18.378906 12.160156 18.363281 C 12.175781 18.359375 12.195312 18.351562 12.210938 18.347656 L 12.253906 18.332031 C 12.292969 18.320312 12.332031 18.308594 12.367188 18.292969 C 12.386719 18.289062 12.402344 18.28125 12.421875 18.273438 L 12.453125 18.265625 C 12.492188 18.25 12.53125 18.234375 12.570312 18.222656 C 12.589844 18.214844 12.609375 18.207031 12.628906 18.199219 L 12.652344 18.191406 C 12.691406 18.175781 12.734375 18.160156 12.773438 18.144531 C 12.792969 18.136719 12.8125 18.128906 12.832031 18.121094 L 12.851562 18.113281 C 12.890625 18.097656 12.933594 18.082031 12.972656 18.066406 C 12.992188 18.058594 13.007812 18.050781 13.027344 18.042969 L 13.046875 18.035156 C 13.085938 18.015625 13.125 18 13.167969 17.984375 C 13.191406 17.972656 13.210938 17.964844 13.238281 17.953125 C 13.277344 17.933594 13.316406 17.917969 13.355469 17.898438 C 13.378906 17.890625 13.402344 17.878906 13.425781 17.867188 C 13.464844 17.847656 13.507812 17.832031 13.546875 17.8125 C 13.566406 17.800781 13.589844 17.792969 13.609375 17.78125 C 13.648438 17.761719 13.691406 17.742188 13.730469 17.722656 L 13.789062 17.691406 C 13.832031 17.671875 13.871094 17.652344 13.914062 17.628906 L 13.964844 17.601562 C 14.007812 17.578125 14.050781 17.558594 14.09375 17.535156 L 14.136719 17.511719 C 14.179688 17.484375 14.226562 17.460938 14.269531 17.4375 L 14.304688 17.417969 C 14.351562 17.390625 14.398438 17.363281 14.445312 17.339844 L 14.472656 17.324219 C 14.507812 17.300781 14.546875 17.277344 14.582031 17.257812 C 14.574219 17.398438 14.566406 17.546875 14.566406 17.691406 L 14.566406 17.699219 C 14.566406 17.867188 14.570312 18.039062 14.582031 18.210938 L 14.582031 18.230469 C 14.585938 18.28125 14.589844 18.332031 14.59375 18.382812 L 14.59375 18.402344 C 14.605469 18.515625 14.617188 18.628906 14.632812 18.742188 L 14.636719 18.773438 C 14.640625 18.816406 14.648438 18.863281 14.65625 18.90625 L 14.660156 18.949219 C 14.667969 18.996094 14.675781 19.042969 14.683594 19.089844 L 14.6875 19.117188 C 14.699219 19.171875 14.707031 19.230469 14.71875 19.285156 L 14.726562 19.316406 C 14.734375 19.359375 14.742188 19.40625 14.753906 19.449219 L 14.765625 19.5 C 14.773438 19.539062 14.78125 19.582031 14.792969 19.621094 L 14.804688 19.671875 C 14.816406 19.726562 14.828125 19.78125 14.84375 19.835938 C 14.859375 19.902344 14.878906 19.96875 14.902344 20.050781 L 14.917969 20.097656 C 14.9375 20.167969 14.957031 20.238281 14.980469 20.304688 L 14.992188 20.34375 C 15.011719 20.40625 15.035156 20.472656 15.058594 20.539062 L 15.066406 20.566406 C 15.089844 20.628906 15.113281 20.699219 15.140625 20.773438 L 15.160156 20.820312 C 15.1875 20.894531 15.214844 20.964844 15.242188 21.03125 L 15.25 21.054688 C 15.277344 21.121094 15.304688 21.183594 15.332031 21.25 L 15.347656 21.285156 C 15.378906 21.355469 15.410156 21.421875 15.441406 21.492188 L 15.460938 21.535156 C 15.496094 21.613281 15.527344 21.675781 15.554688 21.734375 L 15.5625 21.75 C 15.59375 21.8125 15.628906 21.878906 15.667969 21.957031 L 15.691406 22 C 15.726562 22.066406 15.761719 22.136719 15.800781 22.203125 L 15.820312 22.238281 C 15.855469 22.304688 15.890625 22.367188 15.925781 22.429688 L 15.941406 22.453125 C 15.980469 22.519531 16.019531 22.589844 16.0625 22.65625 L 16.085938 22.699219 C 16.132812 22.773438 16.175781 22.835938 16.214844 22.898438 L 16.230469 22.921875 C 16.269531 22.984375 16.308594 23.046875 16.351562 23.109375 L 16.375 23.144531 C 16.421875 23.210938 16.464844 23.273438 16.511719 23.339844 L 16.539062 23.378906 C 16.59375 23.453125 16.636719 23.515625 16.679688 23.574219 L 16.683594 23.582031 C 16.988281 24.132812 17.371094 24.648438 17.816406 25.117188 C 17.921875 25.226562 18.03125 25.339844 18.144531 25.445312 C 18.199219 25.492188 18.253906 25.542969 18.3125 25.59375 C 18.390625 25.667969 18.472656 25.738281 18.558594 25.804688 C 18.636719 25.871094 18.71875 25.9375 18.800781 26 C 18.855469 26.039062 18.90625 26.078125 18.960938 26.117188 C 19.011719 26.15625 19.066406 26.195312 19.117188 26.230469 C 19.964844 26.820312 20.648438 27.078125 20.726562 27.105469 L 22.285156 27.671875 L 21.222656 26.40625 C 21.195312 26.371094 21.164062 26.335938 21.132812 26.296875 L 21.113281 26.273438 C 21.085938 26.234375 21.058594 26.199219 21.03125 26.164062 L 21.019531 26.148438 C 20.996094 26.113281 20.96875 26.082031 20.945312 26.046875 L 20.929688 26.023438 C 20.902344 25.988281 20.878906 25.953125 20.851562 25.914062 L 20.839844 25.894531 C 20.816406 25.859375 20.792969 25.828125 20.773438 25.792969 L 20.761719 25.777344 C 20.738281 25.738281 20.714844 25.703125 20.691406 25.667969 L 20.675781 25.640625 C 20.65625 25.605469 20.636719 25.570312 20.613281 25.535156 L 20.609375 25.527344 C 20.589844 25.492188 20.566406 25.453125 20.546875 25.417969 L 20.53125 25.390625 C 20.511719 25.355469 20.492188 25.316406 20.472656 25.28125 L 20.46875 25.269531 C 20.449219 25.238281 20.433594 25.203125 20.417969 25.167969 L 20.402344 25.144531 C 20.386719 25.105469 20.367188 25.070312 20.351562 25.035156 L 20.34375 25.015625 C 20.328125 24.984375 20.3125 24.953125 20.300781 24.921875 L 20.289062 24.898438 C 20.273438 24.863281 20.257812 24.828125 20.246094 24.796875 L 20.234375 24.773438 C 20.222656 24.738281 20.210938 24.707031 20.195312 24.675781 L 20.191406 24.664062 C 20.175781 24.628906 20.164062 24.59375 20.152344 24.558594 L 20.140625 24.535156 C 20.128906 24.5 20.117188 24.464844 20.105469 24.433594 L 20.101562 24.433594 C 20.089844 24.398438 20.078125 24.363281 20.066406 24.332031 L 20.058594 24.308594 C 20.046875 24.273438 20.039062 24.242188 20.027344 24.210938 L 20.023438 24.195312 C 20.011719 24.167969 20.003906 24.136719 19.996094 24.109375 L 19.988281 24.089844 C 19.980469 24.058594 19.972656 24.027344 19.960938 23.996094 L 19.957031 23.980469 C 19.949219 23.953125 19.941406 23.925781 19.933594 23.898438 L 19.929688 23.882812 C 19.921875 23.851562 19.914062 23.824219 19.90625 23.796875 L 19.902344 23.777344 C 19.894531 23.75 19.886719 23.722656 19.882812 23.691406 L 19.761719 23.722656 C 19.761719 23.722656 19.882812 23.6875 19.882812 23.6875 C 19.875 23.660156 19.867188 23.632812 19.863281 23.605469 L 19.859375 23.585938 C 19.851562 23.558594 19.847656 23.535156 19.839844 23.507812 L 19.839844 23.5 C 19.832031 23.476562 19.828125 23.453125 19.824219 23.429688 L 19.820312 23.414062 C 19.816406 23.390625 19.8125 23.367188 19.808594 23.339844 L 19.804688 23.328125 C 19.800781 23.308594 19.796875 23.289062 19.792969 23.269531 L 19.792969 23.257812 C 19.789062 23.234375 19.785156 23.214844 19.78125 23.191406 L 19.78125 23.179688 C 19.777344 23.160156 19.773438 23.140625 19.773438 23.125 L 19.769531 23.117188 C 19.769531 23.097656 19.765625 23.078125 19.761719 23.0625 L 19.761719 23.058594 C 19.792969 23.03125 19.824219 23 19.859375 22.972656 L 19.875 22.957031 C 20.066406 22.78125 20.25 22.605469 20.417969 22.429688 L 20.441406 22.40625 C 20.609375 22.234375 20.765625 22.058594 20.914062 21.882812 L 20.945312 21.847656 C 20.976562 21.808594 21.007812 21.769531 21.039062 21.730469 L 21.0625 21.703125 C 21.128906 21.621094 21.195312 21.539062 21.253906 21.457031 L 21.261719 21.445312 C 21.289062 21.410156 21.316406 21.375 21.339844 21.339844 C 21.351562 21.320312 21.367188 21.300781 21.378906 21.285156 C 21.402344 21.25 21.425781 21.214844 21.449219 21.179688 C 21.460938 21.164062 21.472656 21.148438 21.484375 21.132812 L 21.492188 21.121094 C 21.53125 21.0625 21.570312 21 21.609375 20.9375 L 21.625 20.917969 C 21.632812 20.90625 21.640625 20.890625 21.648438 20.878906 C 21.664062 20.855469 21.679688 20.828125 21.695312 20.800781 L 21.703125 20.789062 C 21.714844 20.765625 21.730469 20.738281 21.746094 20.714844 C 21.761719 20.683594 21.78125 20.65625 21.796875 20.625 C 21.8125 20.597656 21.828125 20.570312 21.84375 20.542969 L 21.851562 20.523438 C 21.863281 20.503906 21.875 20.484375 21.886719 20.460938 C 21.914062 20.410156 21.9375 20.359375 21.964844 20.308594 C 21.972656 20.292969 21.980469 20.277344 21.988281 20.257812 L 21.996094 20.238281 C 22.011719 20.207031 22.027344 20.171875 22.042969 20.140625 C 22.054688 20.117188 22.066406 20.089844 22.078125 20.066406 C 22.09375 20.03125 22.105469 20 22.121094 19.964844 L 22.128906 19.945312 C 22.136719 19.929688 22.140625 19.914062 22.148438 19.898438 C 22.171875 19.84375 22.191406 19.789062 22.210938 19.738281 C 22.214844 19.726562 22.21875 19.714844 22.222656 19.703125 L 22.230469 19.6875 C 22.246094 19.648438 22.257812 19.605469 22.273438 19.566406 C 22.28125 19.542969 22.285156 19.523438 22.292969 19.503906 C 22.304688 19.464844 22.316406 19.425781 22.328125 19.386719 L 22.335938 19.367188 C 22.339844 19.355469 22.34375 19.34375 22.347656 19.328125 C 22.363281 19.269531 22.378906 19.214844 22.390625 19.160156 L 22.398438 19.136719 C 22.410156 19.085938 22.421875 19.039062 22.433594 18.988281 C 22.433594 18.972656 22.4375 18.957031 22.441406 18.941406 L 22.445312 18.933594 C 22.453125 18.890625 22.460938 18.851562 22.46875 18.808594 L 22.46875 18.796875 C 22.472656 18.78125 22.476562 18.769531 22.476562 18.753906 C 22.488281 18.691406 22.496094 18.632812 22.503906 18.582031 C 22.511719 18.53125 22.515625 18.480469 22.523438 18.425781 C 22.523438 18.414062 22.523438 18.402344 22.527344 18.390625 L 22.527344 18.375 C 22.53125 18.335938 22.535156 18.300781 22.535156 18.265625 C 22.535156 18.25 22.539062 18.234375 22.539062 18.21875 L 22.539062 18.207031 C 22.542969 18.171875 22.542969 18.136719 22.542969 18.101562 C 22.542969 18.082031 22.546875 18.0625 22.546875 18.042969 C 22.546875 18.007812 22.546875 17.972656 22.546875 17.9375 C 22.546875 17.921875 22.546875 17.902344 22.546875 17.882812 C 22.546875 17.847656 22.546875 17.808594 22.542969 17.769531 L 22.542969 17.753906 C 22.542969 17.746094 22.542969 17.734375 22.542969 17.726562 C 22.542969 17.679688 22.539062 17.628906 22.535156 17.582031 L 22.535156 17.566406 C 22.527344 17.457031 22.515625 17.34375 22.5 17.234375 L 22.496094 17.222656 C 22.488281 17.171875 22.480469 17.121094 22.472656 17.070312 L 22.46875 17.046875 C 22.460938 17 22.453125 16.953125 22.441406 16.90625 L 22.4375 16.882812 C 22.425781 16.832031 22.414062 16.785156 22.402344 16.738281 L 22.398438 16.71875 C 22.371094 16.601562 22.339844 16.484375 22.300781 16.367188 C 22.328125 16.394531 22.351562 16.421875 22.378906 16.445312 L 22.382812 16.453125 C 22.410156 16.480469 22.433594 16.507812 22.460938 16.539062 L 22.464844 16.542969 C 22.488281 16.570312 22.515625 16.597656 22.539062 16.628906 L 22.632812 16.550781 L 22.542969 16.632812 C 22.566406 16.660156 22.59375 16.691406 22.617188 16.722656 L 23.246094 17.453125 L 23.210938 17.074219 C 23.191406 16.890625 23.167969 16.714844 23.136719 16.550781 C 23.464844 17.222656 23.808594 18.355469 23.734375 19.808594 L 23.710938 20.285156 L 24.277344 19.363281 L 24.28125 19.355469 C 24.875 18.25 24.949219 17.035156 24.5 15.828125 C 24.75 15.980469 25.019531 16.121094 25.296875 16.246094 L 25.300781 16.25 C 25.34375 16.269531 25.386719 16.289062 25.429688 16.308594 L 25.4375 16.3125 C 25.523438 16.347656 25.609375 16.382812 25.695312 16.417969 L 25.714844 16.425781 C 25.75 16.4375 25.785156 16.453125 25.816406 16.464844 L 25.839844 16.472656 C 25.917969 16.503906 25.996094 16.53125 26.074219 16.554688 L 26.101562 16.566406 C 26.132812 16.574219 26.160156 16.585938 26.1875 16.59375 L 26.21875 16.605469 C 26.253906 16.617188 26.289062 16.625 26.324219 16.636719 C 27.316406 16.945312 28.074219 16.996094 28.105469 17 L 29.132812 17.066406 Z M 29.136719 17.066406 " fill-opacity="1" fill-rule="nonzero"/></g><path fill="#000000" d="M 23.859375 19.8125 C 23.953125 17.949219 23.382812 16.578125 22.953125 16.003906 C 22.902344 15.933594 22.847656 15.871094 22.796875 15.808594 C 22.882812 16.007812 23.035156 16.472656 23.089844 17.085938 L 22.71875 16.648438 C 21.933594 15.65625 20.507812 14.914062 20.492188 14.90625 L 20.371094 14.84375 L 21.089844 12.160156 L 21.292969 12.300781 C 22.8125 13.34375 23.871094 14.550781 24.355469 15.785156 C 24.828125 16.984375 24.765625 18.199219 24.175781 19.296875 Z M 23.859375 19.8125 " fill-opacity="1" fill-rule="nonzero"/><path fill="#ffcf00" d="M 24.019531 19.21875 C 24.09375 16 22.117188 15 22.089844 14.984375 C 22.105469 15.003906 22.617188 15.535156 22.855469 16.542969 C 22.039062 15.507812 20.574219 14.753906 20.574219 14.753906 L 20.871094 13.644531 C 20.953125 13.339844 21.058594 12.945312 21.191406 12.445312 C 24.304688 14.582031 25.140625 17.132812 24.019531 19.21875 Z M 24.019531 19.21875 " fill-opacity="1" fill-rule="nonzero"/><path fill="#f9b006" d="M 24.019531 19.21875 C 24.09375 16 22.117188 15 22.089844 14.984375 C 22.105469 15.003906 22.617188 15.535156 22.855469 16.542969 C 22.039062 15.507812 20.574219 14.753906 20.574219 14.753906 L 20.722656 14.195312 C 20.761719 14.050781 20.8125 13.871094 20.871094 13.644531 C 21.628906 13.949219 24.730469 15.433594 24.019531 19.21875 Z M 24.019531 19.21875 " fill-opacity="1" fill-rule="nonzero"/><path fill="#ffffff" d="M 22.855469 16.542969 C 22.039062 15.507812 20.574219 14.753906 20.574219 14.753906 L 20.722656 14.195312 C 21.363281 14.679688 22.550781 15.671875 22.855469 16.542969 Z M 22.855469 16.542969 " fill-opacity="1" fill-rule="nonzero"/><path fill="#000000" d="M 18.757812 13.035156 C 18.71875 13.019531 14.625 11.339844 10.398438 7.859375 L 9.988281 7.515625 L 9.976562 8.046875 C 9.953125 9.179688 10.195312 10.074219 10.4375 10.675781 L 9.867188 10.261719 L 10.265625 11.144531 C 10.789062 12.304688 11.542969 12.90625 12.15625 13.210938 C 12.113281 13.214844 12.070312 13.222656 12.015625 13.226562 C 11.839844 13.246094 11.621094 13.269531 11.59375 13.269531 L 11.25 13.253906 L 11.558594 13.398438 C 11.585938 13.410156 12.1875 13.691406 12.5625 13.804688 C 13.390625 14.050781 14.273438 14.175781 15.179688 14.175781 C 15.753906 14.175781 16.332031 14.128906 16.902344 14.027344 C 18.023438 13.832031 18.738281 13.519531 18.765625 13.507812 L 19.316406 13.261719 L 18.757812 13.039062 Z M 18.757812 13.035156 " fill-opacity="1" fill-rule="nonzero"/><path fill="#ffffff" d="M 18.660156 13.273438 C 18.597656 13.300781 15.601562 14.605469 12.265625 13.4375 C 13.46875 13.484375 13.914062 13.339844 13.925781 13.335938 C 13.894531 13.339844 11.648438 13.574219 10.5 11.039062 C 11.128906 11.492188 11.1875 11.535156 11.191406 11.542969 C 11.167969 11.507812 10.191406 10.238281 10.234375 8.054688 C 14.539062 11.601562 18.660156 13.273438 18.660156 13.273438 Z M 18.660156 13.273438 " fill-opacity="1" fill-rule="nonzero"/><path fill="#000000" d="M 18.660156 13.273438 C 18.613281 13.285156 16.515625 13.789062 14.625 13.335938 L 15.289062 13.1875 C 15.289062 13.1875 13.355469 12.617188 11.945312 11.789062 C 13.0625 12.105469 13.195312 12.160156 13.210938 12.164062 C 13.15625 12.136719 10.898438 10.878906 10.234375 8.054688 C 14.539062 11.601562 18.660156 13.273438 18.660156 13.273438 Z M 18.660156 13.273438 " fill-opacity="0.2" fill-rule="nonzero"/><path fill="#000000" d="M 17.425781 24.300781 C 16.222656 22.921875 15.371094 21.367188 14.964844 19.804688 C 14.574219 18.3125 14.597656 16.871094 15.035156 15.636719 C 15.640625 13.910156 16.980469 12.769531 18.804688 12.421875 L 18.945312 12.394531 L 19.0625 12.472656 C 19.070312 12.476562 19.253906 12.59375 19.535156 12.816406 C 19.855469 13.070312 20.339844 13.488281 20.8125 14.035156 L 20.816406 14.039062 L 20.828125 14.054688 C 22.054688 15.476562 22.59375 17.039062 22.386719 18.566406 C 22.117188 20.566406 20.601562 22.515625 17.886719 24.359375 L 17.628906 24.535156 Z M 17.425781 24.300781 " fill-opacity="1" fill-rule="nonzero"/><path fill="#ffcf00" d="M 20.90625 21.144531 C 20.667969 21.46875 20.386719 21.800781 20.058594 22.136719 C 19.441406 22.765625 18.664062 23.414062 17.6875 24.074219 C 16.855469 23.117188 16.226562 22.113281 15.789062 21.117188 C 15.5625 20.597656 15.390625 20.082031 15.269531 19.574219 C 14.46875 16.277344 15.808594 13.34375 18.871094 12.761719 C 18.871094 12.761719 19.046875 12.871094 19.316406 13.085938 C 19.640625 13.34375 20.105469 13.75 20.5625 14.277344 C 21.84375 15.765625 23.050781 18.230469 20.90625 21.140625 Z M 20.90625 21.144531 " fill-opacity="1" fill-rule="nonzero"/><path fill="#000000" d="M 17.6875 24.074219 C 13.609375 19.394531 14.425781 13.609375 18.871094 12.761719 C 18.871094 12.761719 19.046875 12.875 19.316406 13.085938 L 19.222656 13.214844 C 19.222656 13.214844 14.5625 16.816406 17.6875 24.074219 Z M 17.6875 24.074219 " fill-opacity="0.2" fill-rule="nonzero"/><path fill="#ffffff" d="M 17.6875 24.074219 C 23.292969 18.570312 20.5625 14.277344 20.5625 14.277344 C 20.5625 14.277344 20.5625 14.277344 20.5625 14.28125 C 22.253906 16.246094 23.816406 19.917969 17.6875 24.074219 Z M 17.6875 24.074219 " fill-opacity="1" fill-rule="nonzero"/><g clip-path="url(#a0baa8074e)"><path fill="#000000" d="M 31.855469 14.484375 C 31.824219 14.484375 31.792969 14.484375 31.761719 14.480469 C 31.726562 14.472656 31.699219 14.464844 31.679688 14.460938 L 31.574219 14.429688 L 31.476562 14.394531 C 31.40625 14.371094 31.34375 14.34375 31.285156 14.320312 C 31.214844 14.289062 31.152344 14.261719 31.09375 14.234375 C 31.066406 14.222656 31.039062 14.207031 31 14.1875 C 30.96875 14.171875 30.9375 14.152344 30.910156 14.136719 C 30.855469 14.105469 30.796875 14.070312 30.734375 14.03125 C 30.679688 14 30.625 13.960938 30.5625 13.917969 C 30.507812 13.878906 30.457031 13.839844 30.398438 13.792969 C 30.347656 13.75 30.296875 13.707031 30.242188 13.65625 L 30.167969 13.585938 L 30.09375 13.511719 L 30.023438 13.433594 L 29.953125 13.351562 L 29.890625 13.269531 L 29.871094 13.242188 C 29.855469 13.222656 29.839844 13.203125 29.828125 13.183594 C 29.785156 13.121094 29.746094 13.0625 29.714844 13.003906 C 29.683594 12.953125 29.660156 12.90625 29.640625 12.859375 C 29.632812 12.867188 29.601562 12.890625 29.589844 12.898438 C 29.570312 12.914062 29.550781 12.933594 29.527344 12.949219 L 29.4375 13.015625 C 29.199219 13.183594 28.929688 13.339844 28.636719 13.476562 L 28.621094 13.484375 C 28.558594 13.511719 28.492188 13.539062 28.429688 13.566406 C 28.359375 13.597656 28.292969 13.621094 28.226562 13.648438 L 28.21875 13.652344 C 28.132812 13.683594 28.066406 13.707031 28.003906 13.730469 C 27.921875 13.757812 27.855469 13.777344 27.789062 13.796875 C 27.644531 13.84375 27.496094 13.882812 27.351562 13.917969 C 27.289062 13.933594 27.210938 13.953125 27.125 13.96875 C 27.089844 13.976562 27.050781 13.984375 27.011719 13.992188 C 26.972656 14 26.933594 14.007812 26.886719 14.011719 L 26.878906 14.015625 C 26.851562 14.019531 26.820312 14.019531 26.792969 14.019531 C 26.5 14.019531 26.25 13.804688 26.207031 13.519531 C 26.160156 13.199219 26.386719 12.902344 26.707031 12.855469 C 26.738281 12.851562 26.765625 12.851562 26.785156 12.851562 C 26.808594 12.851562 26.839844 12.847656 26.867188 12.847656 L 26.960938 12.839844 C 27.027344 12.835938 27.097656 12.828125 27.148438 12.820312 C 27.277344 12.808594 27.40625 12.789062 27.53125 12.765625 C 27.585938 12.757812 27.648438 12.746094 27.71875 12.730469 C 27.773438 12.71875 27.832031 12.707031 27.910156 12.6875 L 27.921875 12.683594 C 27.980469 12.667969 28.035156 12.65625 28.09375 12.636719 L 28.097656 12.636719 C 28.148438 12.625 28.203125 12.605469 28.257812 12.589844 L 28.277344 12.582031 C 28.53125 12.5 28.765625 12.402344 28.972656 12.292969 L 29.054688 12.246094 C 29.070312 12.238281 29.085938 12.226562 29.101562 12.21875 C 29.113281 12.210938 29.121094 12.203125 29.132812 12.195312 C 29.160156 12.183594 29.183594 12.167969 29.203125 12.152344 C 29.214844 12.144531 29.226562 12.136719 29.238281 12.128906 C 29.253906 12.121094 29.269531 12.109375 29.28125 12.097656 L 29.304688 12.082031 C 29.347656 12.050781 29.390625 12.019531 29.425781 11.992188 L 29.433594 11.984375 C 29.460938 11.960938 29.492188 11.933594 29.523438 11.90625 C 29.535156 11.894531 29.546875 11.882812 29.558594 11.875 C 29.628906 11.796875 29.730469 11.753906 29.835938 11.753906 C 29.921875 11.753906 30.007812 11.785156 30.078125 11.839844 C 30.140625 11.890625 30.183594 11.957031 30.203125 12.035156 L 30.210938 12.058594 C 30.210938 12.070312 30.214844 12.082031 30.21875 12.09375 C 30.21875 12.105469 30.222656 12.113281 30.226562 12.125 C 30.226562 12.136719 30.230469 12.144531 30.234375 12.15625 C 30.238281 12.164062 30.238281 12.171875 30.242188 12.183594 L 30.246094 12.1875 C 30.261719 12.234375 30.277344 12.273438 30.292969 12.304688 L 30.296875 12.3125 C 30.304688 12.328125 30.3125 12.34375 30.324219 12.363281 L 30.328125 12.371094 C 30.335938 12.382812 30.347656 12.398438 30.355469 12.414062 L 30.359375 12.421875 C 30.382812 12.457031 30.40625 12.492188 30.4375 12.53125 C 30.464844 12.5625 30.492188 12.597656 30.527344 12.632812 L 30.628906 12.734375 L 30.683594 12.78125 L 30.738281 12.824219 L 30.855469 12.910156 C 30.898438 12.9375 30.9375 12.964844 30.976562 12.988281 C 31.023438 13.015625 31.066406 13.039062 31.105469 13.058594 C 31.152344 13.082031 31.195312 13.101562 31.238281 13.121094 C 31.289062 13.144531 31.332031 13.160156 31.375 13.175781 L 31.378906 13.179688 C 31.398438 13.1875 31.421875 13.195312 31.441406 13.203125 L 31.445312 13.203125 C 31.464844 13.210938 31.488281 13.21875 31.511719 13.226562 L 31.515625 13.226562 C 31.554688 13.238281 31.601562 13.253906 31.652344 13.265625 C 31.695312 13.277344 31.738281 13.289062 31.792969 13.296875 L 31.867188 13.3125 L 31.945312 13.324219 C 32.101562 13.347656 32.238281 13.429688 32.332031 13.558594 C 32.425781 13.683594 32.460938 13.835938 32.4375 13.992188 C 32.394531 14.277344 32.148438 14.484375 31.855469 14.484375 Z M 31.855469 14.484375 " fill-opacity="1" fill-rule="nonzero"/><path fill="#ffffff" d="M 32.199219 13.953125 C 32.199219 13.960938 32.195312 13.96875 32.195312 13.976562 C 32.15625 14.152344 31.984375 14.273438 31.800781 14.242188 C 31.78125 14.242188 31.765625 14.238281 31.75 14.230469 L 31.65625 14.203125 L 31.5625 14.171875 C 31.5 14.148438 31.4375 14.125 31.378906 14.101562 C 31.320312 14.074219 31.261719 14.046875 31.203125 14.019531 C 31.171875 14.007812 31.144531 13.992188 31.117188 13.976562 C 31.085938 13.960938 31.058594 13.945312 31.03125 13.929688 C 30.972656 13.898438 30.917969 13.867188 30.863281 13.832031 C 30.808594 13.796875 30.757812 13.761719 30.707031 13.722656 C 30.652344 13.6875 30.601562 13.648438 30.550781 13.605469 C 30.503906 13.566406 30.453125 13.523438 30.40625 13.480469 L 30.335938 13.414062 L 30.269531 13.347656 L 30.207031 13.277344 L 30.144531 13.203125 L 30.082031 13.125 C 30.066406 13.101562 30.046875 13.074219 30.027344 13.050781 C 29.992188 12.996094 29.957031 12.941406 29.925781 12.886719 C 29.894531 12.828125 29.863281 12.773438 29.835938 12.714844 C 29.824219 12.683594 29.8125 12.652344 29.800781 12.625 C 29.789062 12.59375 29.777344 12.5625 29.769531 12.53125 C 29.757812 12.503906 29.75 12.472656 29.742188 12.445312 C 29.707031 12.480469 29.671875 12.511719 29.636719 12.546875 C 29.609375 12.570312 29.582031 12.59375 29.554688 12.617188 C 29.527344 12.644531 29.5 12.667969 29.46875 12.6875 C 29.441406 12.710938 29.414062 12.734375 29.382812 12.757812 L 29.292969 12.820312 C 29.054688 12.992188 28.800781 13.136719 28.535156 13.257812 C 28.46875 13.289062 28.402344 13.320312 28.335938 13.347656 C 28.265625 13.375 28.199219 13.402344 28.132812 13.429688 C 28.0625 13.453125 27.996094 13.480469 27.925781 13.503906 C 27.855469 13.527344 27.785156 13.550781 27.71875 13.570312 C 27.578125 13.613281 27.4375 13.652344 27.292969 13.6875 C 27.222656 13.703125 27.152344 13.71875 27.078125 13.734375 C 27.042969 13.742188 27.003906 13.75 26.96875 13.757812 C 26.929688 13.761719 26.894531 13.769531 26.851562 13.777344 L 26.84375 13.777344 C 26.652344 13.804688 26.476562 13.675781 26.445312 13.484375 C 26.417969 13.296875 26.550781 13.121094 26.742188 13.09375 C 26.757812 13.089844 26.773438 13.089844 26.789062 13.089844 C 26.816406 13.089844 26.851562 13.085938 26.882812 13.085938 L 26.980469 13.078125 C 27.03125 13.074219 27.082031 13.070312 27.132812 13.0625 C 27.148438 13.0625 27.164062 13.058594 27.175781 13.058594 C 27.308594 13.042969 27.441406 13.023438 27.574219 13 C 27.640625 12.988281 27.707031 12.976562 27.769531 12.960938 C 27.835938 12.949219 27.902344 12.933594 27.964844 12.917969 C 28.03125 12.902344 28.097656 12.886719 28.160156 12.867188 C 28.226562 12.847656 28.289062 12.828125 28.351562 12.808594 C 28.605469 12.726562 28.855469 12.625 29.085938 12.5 L 29.175781 12.453125 C 29.203125 12.433594 29.230469 12.417969 29.257812 12.398438 C 29.289062 12.382812 29.316406 12.367188 29.34375 12.347656 C 29.371094 12.328125 29.398438 12.3125 29.425781 12.292969 C 29.476562 12.253906 29.53125 12.214844 29.582031 12.171875 C 29.632812 12.128906 29.679688 12.085938 29.730469 12.039062 C 29.777344 11.984375 29.863281 11.976562 29.921875 12.023438 C 29.945312 12.042969 29.960938 12.066406 29.96875 12.09375 L 29.976562 12.117188 C 29.980469 12.144531 29.988281 12.167969 29.996094 12.191406 C 30.003906 12.21875 30.007812 12.242188 30.019531 12.269531 C 30.035156 12.316406 30.054688 12.363281 30.078125 12.410156 C 30.089844 12.433594 30.101562 12.457031 30.117188 12.480469 C 30.128906 12.503906 30.140625 12.527344 30.15625 12.546875 C 30.183594 12.59375 30.214844 12.636719 30.246094 12.675781 C 30.28125 12.71875 30.316406 12.757812 30.351562 12.796875 L 30.40625 12.855469 L 30.464844 12.910156 L 30.523438 12.960938 L 30.585938 13.011719 L 30.71875 13.105469 C 30.761719 13.136719 30.808594 13.164062 30.851562 13.191406 C 30.898438 13.21875 30.945312 13.246094 30.992188 13.269531 C 31.042969 13.292969 31.089844 13.316406 31.140625 13.339844 C 31.1875 13.363281 31.238281 13.382812 31.289062 13.402344 C 31.3125 13.410156 31.339844 13.417969 31.363281 13.425781 C 31.386719 13.4375 31.414062 13.445312 31.4375 13.453125 C 31.488281 13.46875 31.542969 13.484375 31.59375 13.496094 C 31.644531 13.511719 31.695312 13.523438 31.746094 13.53125 L 31.824219 13.546875 L 31.902344 13.558594 L 31.90625 13.558594 C 32.097656 13.589844 32.230469 13.765625 32.199219 13.953125 Z M 32.199219 13.953125 " fill-opacity="1" fill-rule="nonzero"/></g><path fill="#000000" d="M 21.558594 14.054688 C 20.773438 14.109375 19.878906 13.878906 18.929688 13.632812 C 18.71875 13.582031 18.5 13.523438 18.28125 13.472656 C 17.960938 13.394531 17.695312 13.335938 17.449219 13.289062 L 17.238281 13.25 L 17.089844 13.210938 L 17.261719 12.871094 C 17.78125 11.691406 19.136719 9.042969 20.898438 8.871094 C 20.921875 8.867188 20.945312 8.867188 20.96875 8.863281 C 22.667969 8.746094 23.8125 10.300781 23.859375 10.367188 L 23.929688 10.460938 L 23.539062 12.609375 L 23.527344 12.640625 C 23.132812 13.527344 22.488281 13.988281 21.558594 14.054688 Z M 21.558594 14.054688 " fill-opacity="1" fill-rule="nonzero"/><path fill="#f9b006" d="M 23.632812 10.527344 L 23.578125 10.84375 C 23.527344 11.113281 23.4375 11.613281 23.273438 12.53125 C 22.40625 14.46875 20.449219 13.714844 18.347656 13.203125 C 18.066406 13.136719 17.785156 13.070312 17.5 13.019531 C 18.007812 11.851562 19.332031 9.300781 20.925781 9.144531 C 22.523438 8.988281 23.632812 10.527344 23.632812 10.527344 Z M 23.632812 10.527344 " fill-opacity="1" fill-rule="nonzero"/><path fill="#ffcf00" d="M 23.632812 10.527344 L 23.578125 10.84375 C 20.3125 9.238281 17.535156 12.972656 17.5 13.019531 C 18.007812 11.851562 19.332031 9.300781 20.925781 9.144531 C 22.523438 8.988281 23.632812 10.527344 23.632812 10.527344 Z M 23.632812 10.527344 " fill-opacity="1" fill-rule="nonzero"/><path fill="#ffffff" d="M 23.273438 12.53125 C 22.40625 14.46875 20.449219 13.714844 18.347656 13.203125 C 21.554688 13.863281 23.273438 12.53125 23.273438 12.53125 Z M 23.273438 12.53125 " fill-opacity="1" fill-rule="nonzero"/><path fill="#ffcf00" d="M 28.132812 16.65625 C 28.132812 16.65625 25.183594 16.464844 23.355469 14.453125 C 21.789062 12.734375 22.398438 11.246094 22.96875 10.605469 C 23.046875 10.515625 23.125 10.445312 23.195312 10.390625 C 23.210938 10.378906 23.226562 10.367188 23.238281 10.359375 C 24.398438 9.570312 26.511719 9.835938 27.136719 12.523438 C 27.136719 12.523438 27.136719 12.523438 27.136719 12.527344 C 27.300781 13.242188 27.363281 14.132812 27.269531 15.21875 C 27.28125 15.324219 27.304688 15.429688 27.332031 15.527344 C 27.542969 16.242188 28.132812 16.65625 28.132812 16.65625 Z M 28.132812 16.65625 " fill-opacity="1" fill-rule="nonzero"/><path fill="#f9b006" d="M 28.132812 16.65625 C 28.132812 16.65625 25.183594 16.464844 23.355469 14.453125 C 21.570312 12.492188 22.609375 10.835938 23.195312 10.390625 L 23.199219 10.390625 C 23.199219 10.390625 21.683594 12.34375 24.074219 14.453125 C 25.058594 15.320312 26.300781 15.542969 27.332031 15.523438 C 27.542969 16.242188 28.132812 16.65625 28.132812 16.65625 Z M 28.132812 16.65625 " fill-opacity="1" fill-rule="nonzero"/><path fill="#000000" d="M 24.34375 12.636719 C 24.34375 12.636719 24.414062 12.609375 24.539062 12.574219 C 24.601562 12.554688 24.675781 12.535156 24.765625 12.511719 C 24.855469 12.488281 24.953125 12.46875 25.066406 12.449219 C 25.175781 12.429688 25.296875 12.410156 25.429688 12.402344 C 25.445312 12.402344 25.460938 12.398438 25.476562 12.398438 L 25.496094 12.398438 C 25.496094 12.398438 25.5 12.394531 25.5 12.394531 C 25.5 12.394531 25.511719 12.394531 25.511719 12.394531 L 25.523438 12.394531 C 25.523438 12.394531 25.53125 12.398438 25.53125 12.398438 C 25.53125 12.398438 25.539062 12.398438 25.542969 12.398438 C 25.5625 12.402344 25.585938 12.40625 25.597656 12.410156 C 25.613281 12.417969 25.625 12.421875 25.636719 12.429688 C 25.664062 12.441406 25.6875 12.460938 25.707031 12.476562 C 25.742188 12.507812 25.769531 12.542969 25.792969 12.578125 C 25.816406 12.613281 25.835938 12.644531 25.855469 12.679688 C 25.925781 12.816406 25.976562 12.953125 26.027344 13.085938 C 26.074219 13.222656 26.125 13.359375 26.175781 13.496094 C 26.226562 13.628906 26.28125 13.761719 26.335938 13.890625 C 26.390625 14.015625 26.449219 14.136719 26.511719 14.25 C 26.574219 14.363281 26.636719 14.46875 26.707031 14.5625 C 26.773438 14.660156 26.839844 14.742188 26.910156 14.8125 C 26.976562 14.886719 27.042969 14.945312 27.101562 14.996094 C 27.164062 15.046875 27.21875 15.085938 27.265625 15.117188 C 27.3125 15.148438 27.351562 15.167969 27.378906 15.183594 C 27.40625 15.195312 27.417969 15.203125 27.417969 15.203125 L 27.191406 15.632812 C 27.191406 15.632812 27.175781 15.625 27.140625 15.605469 C 27.105469 15.585938 27.058594 15.558594 26.996094 15.515625 C 26.9375 15.476562 26.863281 15.425781 26.789062 15.359375 C 26.714844 15.292969 26.632812 15.214844 26.554688 15.121094 C 26.476562 15.03125 26.398438 14.925781 26.324219 14.8125 C 26.253906 14.699219 26.183594 14.574219 26.125 14.441406 C 26.0625 14.3125 26.007812 14.175781 25.957031 14.035156 C 25.90625 13.894531 25.863281 13.75 25.824219 13.609375 C 25.78125 13.464844 25.746094 13.324219 25.707031 13.1875 C 25.671875 13.050781 25.636719 12.914062 25.589844 12.804688 C 25.566406 12.746094 25.539062 12.695312 25.519531 12.671875 C 25.511719 12.667969 25.507812 12.660156 25.503906 12.660156 C 25.503906 12.65625 25.5 12.65625 25.507812 12.65625 C 25.507812 12.65625 25.511719 12.65625 25.511719 12.65625 L 25.503906 12.65625 L 25.492188 12.652344 C 25.496094 12.652344 25.480469 12.652344 25.5 12.652344 C 25.5 12.652344 25.496094 12.652344 25.496094 12.652344 L 25.492188 12.652344 C 25.492188 12.652344 25.480469 12.652344 25.480469 12.652344 C 25.464844 12.652344 25.449219 12.652344 25.433594 12.652344 C 25.3125 12.648438 25.191406 12.648438 25.082031 12.648438 C 24.972656 12.648438 24.871094 12.648438 24.78125 12.644531 C 24.691406 12.644531 24.613281 12.644531 24.546875 12.644531 C 24.484375 12.644531 24.429688 12.640625 24.394531 12.640625 C 24.359375 12.640625 24.34375 12.636719 24.34375 12.636719 Z M 24.34375 12.636719 " fill-opacity="1" fill-rule="nonzero"/><path fill="#000000" d="M 25.554688 12.679688 C 25.554688 12.679688 24.84375 13.226562 24.773438 13.746094 C 24.703125 14.265625 25.710938 14.964844 26.773438 15.015625 C 26.027344 13.640625 25.554688 12.679688 25.554688 12.679688 Z M 25.554688 12.679688 " fill-opacity="1" fill-rule="nonzero"/><path fill="#ffffff" d="M 27.136719 12.523438 C 25.605469 9.453125 23.003906 10.589844 22.96875 10.605469 C 23.046875 10.515625 23.125 10.445312 23.195312 10.390625 C 23.210938 10.378906 23.226562 10.367188 23.238281 10.359375 C 24.398438 9.570312 26.511719 9.835938 27.136719 12.523438 Z M 27.136719 12.523438 " fill-opacity="0.39" fill-rule="nonzero"/><path fill="#000000" d="M 28.917969 16.929688 L 28.117188 16.878906 C 28.085938 16.875 27.34375 16.824219 26.363281 16.523438 C 25.453125 16.242188 24.167969 15.679688 23.1875 14.605469 C 22.21875 13.539062 22.085938 12.585938 22.144531 11.972656 C 22.21875 11.179688 22.65625 10.515625 23.058594 10.210938 C 23.078125 10.199219 23.09375 10.1875 23.109375 10.175781 C 23.515625 9.898438 24.019531 9.746094 24.523438 9.746094 C 25.242188 9.746094 25.917969 10.050781 26.429688 10.597656 C 27.039062 11.25 27.71875 12.582031 27.5 15.214844 C 27.507812 15.296875 27.527344 15.378906 27.550781 15.460938 C 27.738281 16.09375 28.257812 16.46875 28.265625 16.472656 Z M 24.523438 10.195312 C 24.109375 10.195312 23.699219 10.320312 23.367188 10.542969 C 23.359375 10.550781 23.347656 10.558594 23.335938 10.566406 C 23.09375 10.75 22.667969 11.261719 22.59375 12.015625 C 22.523438 12.777344 22.835938 13.546875 23.523438 14.304688 C 24.765625 15.664062 26.554688 16.164062 27.503906 16.339844 C 27.355469 16.144531 27.203125 15.890625 27.117188 15.589844 C 27.082031 15.472656 27.058594 15.355469 27.042969 15.242188 L 27.042969 15.199219 C 27.253906 12.714844 26.644531 11.492188 26.097656 10.902344 C 25.671875 10.445312 25.113281 10.195312 24.523438 10.195312 Z M 24.523438 10.195312 " fill-opacity="1" fill-rule="nonzero"/><path fill="#000000" d="M 18.546875 16.734375 C 18.019531 16.589844 17.574219 16.390625 17.214844 16.183594 C 16.125 15.5625 15.570312 14.78125 15.484375 14.675781 L 16.203125 14.183594 C 16.203125 14.183594 16.753906 14.933594 17.683594 15.457031 C 18.917969 16.148438 20.324219 16.269531 21.875 15.820312 L 22.121094 16.648438 C 20.683594 17.066406 19.484375 16.992188 18.546875 16.734375 Z M 18.546875 16.734375 " fill-opacity="1" fill-rule="nonzero"/><path fill="#000000" d="M 18.136719 19.375 C 17.5625 19.21875 17.074219 19.003906 16.679688 18.789062 C 15.484375 18.140625 14.863281 17.339844 14.765625 17.234375 L 15.035156 16.273438 C 15.035156 16.273438 16.148438 17.519531 17.171875 18.066406 C 18.527344 18.792969 20.5 18.882812 22.167969 18.46875 L 22.015625 19.375 C 20.464844 19.761719 19.164062 19.65625 18.136719 19.375 Z M 18.136719 19.375 " fill-opacity="1" fill-rule="nonzero"/><path fill="#000000" d="M 20.960938 21.144531 C 20.714844 21.472656 20.429688 21.8125 20.097656 22.152344 C 19.136719 22.222656 18.300781 22.113281 17.59375 21.921875 C 17.007812 21.761719 16.511719 21.542969 16.109375 21.324219 C 15.984375 21.253906 15.867188 21.1875 15.753906 21.117188 C 15.523438 20.589844 15.347656 20.066406 15.222656 19.546875 C 15.621094 19.917969 16.125 20.328125 16.609375 20.589844 C 17.792969 21.222656 19.441406 21.378906 20.960938 21.144531 Z M 20.960938 21.144531 " fill-opacity="1" fill-rule="nonzero"/><g clip-path="url(#21bbea4bc1)"><path fill="#000000" d="M 20.769531 26.992188 C 20.664062 26.953125 18.191406 26.03125 16.796875 23.523438 L 16.609375 23.191406 L 18.320312 22.851562 L 18.382812 22.8125 L 19.644531 22.683594 L 19.609375 22.738281 C 19.609375 22.757812 19.691406 24.765625 21.132812 26.484375 L 21.90625 27.40625 Z M 20.769531 26.992188 " fill-opacity="1" fill-rule="nonzero"/></g><path fill="#ffffff" d="M 20.882812 26.691406 C 20.835938 26.671875 18.421875 25.777344 17.082031 23.367188 L 17.535156 23.207031 L 18.144531 22.992188 C 18.144531 22.992188 18.480469 23.875 19.222656 24.800781 C 18.6875 23.085938 18.660156 22.835938 18.660156 22.835938 L 19.285156 22.746094 C 19.285156 22.746094 19.347656 24.859375 20.882812 26.691406 Z M 20.882812 26.691406 " fill-opacity="1" fill-rule="nonzero"/><path fill="#000000" d="M 16.921875 23.511719 L 19.683594 22.675781 L 16.5 22.855469 Z M 16.921875 23.511719 " fill-opacity="1" fill-rule="nonzero"/><path fill="#000000" d="M 20.882812 26.691406 C 20.835938 26.671875 18.421875 25.777344 17.082031 23.367188 L 17.535156 23.207031 C 17.773438 23.679688 18.824219 25.582031 20.882812 26.691406 Z M 20.882812 26.691406 " fill-opacity="0.2" fill-rule="nonzero"/><g clip-path="url(#99258a8841)"><path fill="#000000" d="M 17.925781 13.28125 C 17.898438 13.285156 15.121094 13.78125 11 13.78125 C 9 13.78125 7.019531 13.664062 5.113281 13.429688 L 4.464844 13.351562 L 4.808594 13.902344 C 5.609375 15.1875 6.535156 16 7.230469 16.484375 L 6.320312 16.429688 L 7.320312 17.070312 C 8.3125 17.714844 9.335938 18.039062 10.359375 18.039062 C 10.542969 18.039062 10.726562 18.027344 10.910156 18.007812 C 10.855469 18.050781 10.792969 18.101562 10.714844 18.160156 C 10.535156 18.304688 10.308594 18.484375 10.277344 18.503906 L 9.984375 18.675781 L 10.324219 18.632812 C 10.359375 18.625 11.214844 18.515625 11.703125 18.378906 C 13.929688 17.75 15.585938 16.527344 16.585938 15.617188 C 17.671875 14.625 18.226562 13.789062 18.246094 13.753906 L 18.644531 13.148438 Z M 17.925781 13.28125 " fill-opacity="1" fill-rule="nonzero"/></g><path fill="#ffffff" d="M 17.984375 13.585938 C 17.933594 13.660156 15.59375 17.164062 11.121094 18.207031 C 12.46875 17.417969 12.851562 16.953125 12.863281 16.941406 C 12.828125 16.96875 10.546875 18.785156 7.492188 16.8125 C 8.5 16.875 8.59375 16.878906 8.601562 16.878906 C 8.550781 16.863281 6.585938 16.15625 5.074219 13.738281 C 12.296875 14.621094 17.984375 13.585938 17.984375 13.585938 Z M 17.984375 13.585938 " fill-opacity="1" fill-rule="nonzero"/><path fill="#000000" d="M 17.984375 13.585938 C 17.9375 13.632812 16.011719 15.636719 13.625 16.453125 L 14.242188 15.832031 C 14.242188 15.832031 11.726562 16.550781 9.601562 16.625 C 11.046875 16.195312 11.230469 16.164062 11.246094 16.160156 C 11.167969 16.164062 7.808594 16.363281 5.074219 13.738281 C 12.296875 14.625 17.984375 13.585938 17.984375 13.585938 Z M 17.984375 13.585938 " fill-opacity="0.2" fill-rule="nonzero"/><path fill="#000000" d="M 20.714844 13.914062 C 20.714844 13.914062 19.976562 13.980469 19.082031 13.847656 C 20.566406 16.019531 20.367188 18.941406 20.367188 18.941406 L 16.644531 12.394531 L 18.226562 12.300781 Z M 20.714844 13.914062 " fill-opacity="1" fill-rule="nonzero"/><path fill="#000000" d="M 20.136719 20.15625 C 19.761719 18.730469 18.796875 17.453125 17.855469 16.304688 C 17.007812 15.265625 16.132812 14.195312 15.691406 13.152344 C 15.230469 12.0625 15.316406 11.160156 15.953125 10.398438 L 16.03125 10.304688 L 16.15625 10.332031 C 16.183594 10.335938 16.875 10.488281 17.769531 10.921875 C 18.730469 11.386719 19.535156 11.988281 20.164062 12.703125 L 20.902344 13.921875 L 20.71875 13.914062 L 20.4375 13.945312 C 20.429688 13.949219 20.414062 13.949219 20.382812 13.949219 C 20.179688 13.949219 19.59375 13.878906 18.523438 13.214844 C 18.441406 13.164062 18.359375 13.117188 18.28125 13.074219 C 18.644531 13.410156 18.972656 13.878906 19.152344 14.535156 L 19.328125 15.160156 L 19.25 15.097656 C 19.878906 16.222656 20.796875 17.949219 20.136719 20.15625 Z M 20.136719 20.15625 " fill-opacity="1" fill-rule="nonzero"/><path fill="#ffcf00" d="M 16.523438 12.460938 C 16.523438 12.460938 16.863281 12.496094 17.296875 12.679688 C 17.886719 12.933594 18.644531 13.46875 18.957031 14.589844 L 18.425781 14.152344 C 18.425781 14.152344 20.664062 17.285156 20.078125 19.402344 C 19.699219 17.605469 16.796875 15.234375 15.882812 13.074219 C 15.5 12.167969 15.464844 11.300781 16.113281 10.527344 C 16.113281 10.527344 16.796875 10.675781 17.679688 11.105469 C 18.414062 11.460938 19.285156 12.011719 20.011719 12.835938 L 20.414062 13.746094 C 20.414062 13.746094 19.867188 13.804688 18.632812 13.042969 C 17.398438 12.277344 16.523438 12.460938 16.523438 12.460938 Z M 16.523438 12.460938 " fill-opacity="1" fill-rule="nonzero"/><path fill="#000000" d="M 18.09375 19.863281 C 17.03125 19.308594 15.070312 17.535156 14.34375 16.359375 C 13.914062 15.667969 13.722656 14.996094 13.660156 14.382812 L 13.636719 14.15625 L 13.871094 14.160156 C 14.398438 14.167969 14.933594 14.265625 15.460938 14.453125 C 16.359375 14.773438 16.933594 15.242188 16.957031 15.261719 L 16.769531 15.613281 C 16.765625 15.613281 16.574219 15.558594 16.3125 15.503906 C 16.414062 15.574219 16.667969 15.742188 16.667969 15.742188 L 16.691406 15.75 L 16.71875 15.78125 L 16.761719 15.824219 L 16.773438 15.882812 C 16.773438 15.894531 17.007812 17.183594 17.722656 19.03125 L 18.09375 19.859375 Z M 18.09375 19.863281 " fill-opacity="1" fill-rule="nonzero"/><path fill="#ffcf00" d="M 17.53125 19.105469 C 16.589844 18.613281 15.347656 17.492188 14.574219 16.242188 C 14.195312 15.628906 13.929688 14.980469 13.867188 14.363281 C 14.4375 14.371094 14.953125 14.492188 15.390625 14.648438 C 16.257812 14.953125 16.808594 15.402344 16.828125 15.417969 C 16.804688 15.414062 16.046875 15.199219 15.476562 15.203125 C 15.492188 15.210938 16.535156 15.898438 16.570312 15.917969 C 16.570312 15.917969 16.800781 17.214844 17.53125 19.105469 Z M 17.53125 19.105469 " fill-opacity="1" fill-rule="nonzero"/><path fill="#f9b006" d="M 20.078125 19.402344 C 20.078125 19.402344 20.339844 17.882812 18.816406 16.058594 C 17.757812 14.796875 16.296875 12.664062 17.296875 12.679688 C 17.699219 12.851562 18.179688 13.15625 18.542969 13.691406 C 18.714844 13.9375 18.855469 14.234375 18.957031 14.589844 L 18.425781 14.152344 C 18.425781 14.152344 19.882812 16.195312 20.136719 18.09375 C 20.199219 18.546875 20.191406 18.992188 20.078125 19.402344 Z M 20.078125 19.402344 " fill-opacity="1" fill-rule="nonzero"/><path fill="#f9b006" d="M 17.53125 19.105469 C 15.941406 18.046875 14.265625 15.207031 14.761719 15.253906 C 15.25 15.300781 16.527344 15.898438 16.570312 15.917969 C 16.570312 15.917969 16.667969 16.480469 16.945312 17.402344 C 17.089844 17.878906 17.28125 18.457031 17.53125 19.105469 Z M 17.53125 19.105469 " fill-opacity="1" fill-rule="nonzero"/><path fill="#000000" d="M 17.53125 19.105469 C 17.5 19.074219 15.457031 16.871094 15.832031 16.277344 C 16.03125 15.960938 16.527344 16.667969 16.945312 17.402344 C 17.085938 17.878906 17.28125 18.457031 17.53125 19.105469 Z M 17.53125 19.105469 " fill-opacity="0.1" fill-rule="nonzero"/><path fill="#000000" d="M 20.136719 18.09375 C 19.972656 17.503906 19.496094 16.316406 18.65625 15.253906 C 17.675781 14.015625 17.535156 13.464844 17.714844 13.269531 C 17.800781 13.175781 18.179688 13.417969 18.542969 13.691406 C 18.714844 13.9375 18.855469 14.234375 18.957031 14.589844 L 18.425781 14.152344 C 18.425781 14.152344 19.882812 16.195312 20.136719 18.09375 Z M 20.136719 18.09375 " fill-opacity="0.1" fill-rule="nonzero"/><path fill="#000000" d="M 16.113281 10.527344 C 16.113281 10.527344 16.796875 10.675781 17.679688 11.105469 C 17.164062 10.941406 16.707031 10.902344 16.472656 11.125 C 16.007812 11.558594 15.898438 12.4375 15.882812 13.074219 C 15.5 12.171875 15.464844 11.300781 16.109375 10.527344 Z M 16.113281 10.527344 " fill-opacity="0.23" fill-rule="nonzero"/><path fill="#000000" d="M 14.574219 16.242188 C 14.195312 15.628906 13.929688 14.980469 13.867188 14.363281 C 14.4375 14.371094 14.953125 14.492188 15.390625 14.648438 C 15.390625 14.648438 14.625 14.445312 14.335938 14.648438 C 14.195312 14.75 14.355469 15.515625 14.574219 16.242188 Z M 14.574219 16.242188 " fill-opacity="0.23" fill-rule="nonzero"/><g clip-path="url(#c25fb2cf06)"><path fill="#000000" d="M 32.199219 13.953125 C 32.199219 13.960938 32.195312 13.96875 32.195312 13.976562 C 31.675781 13.855469 30.171875 13.398438 29.847656 12.199219 C 28.53125 13.199219 26.445312 13.484375 26.445312 13.484375 L 26.695312 13.3125 C 26.695312 13.3125 26.867188 13.214844 27.132812 13.0625 C 27.148438 13.0625 27.164062 13.058594 27.175781 13.058594 C 27.308594 13.042969 27.441406 13.023438 27.574219 13 C 27.640625 12.988281 27.707031 12.976562 27.769531 12.960938 C 27.835938 12.949219 27.902344 12.933594 27.964844 12.917969 C 28.03125 12.902344 28.097656 12.886719 28.160156 12.867188 C 28.226562 12.847656 28.289062 12.828125 28.351562 12.808594 C 28.605469 12.726562 28.855469 12.625 29.085938 12.5 L 29.175781 12.453125 C 29.203125 12.433594 29.230469 12.417969 29.257812 12.398438 C 29.289062 12.382812 29.316406 12.367188 29.34375 12.347656 C 29.371094 12.328125 29.398438 12.3125 29.425781 12.292969 C 29.476562 12.253906 29.53125 12.214844 29.582031 12.171875 C 29.632812 12.128906 29.679688 12.085938 29.730469 12.039062 C 29.777344 11.984375 29.863281 11.976562 29.921875 12.023438 C 29.945312 12.042969 29.960938 12.066406 29.96875 12.09375 L 29.976562 12.117188 C 29.980469 12.144531 29.988281 12.167969 29.996094 12.191406 C 30.003906 12.21875 30.007812 12.242188 30.019531 12.269531 C 30.035156 12.316406 30.054688 12.363281 30.078125 12.410156 C 30.089844 12.433594 30.101562 12.457031 30.117188 12.480469 C 30.128906 12.503906 30.140625 12.527344 30.15625 12.546875 C 30.183594 12.59375 30.214844 12.636719 30.246094 12.675781 C 30.28125 12.71875 30.316406 12.757812 30.351562 12.796875 L 30.40625 12.855469 L 30.464844 12.910156 L 30.523438 12.960938 L 30.585938 13.011719 L 30.71875 13.105469 C 30.761719 13.136719 30.808594 13.164062 30.851562 13.191406 C 30.898438 13.21875 30.945312 13.246094 30.992188 13.269531 C 31.042969 13.292969 31.089844 13.316406 31.140625 13.339844 C 31.1875 13.363281 31.238281 13.382812 31.289062 13.402344 C 31.3125 13.410156 31.339844 13.417969 31.363281 13.425781 C 31.386719 13.4375 31.414062 13.445312 31.4375 13.453125 C 31.488281 13.46875 31.542969 13.484375 31.59375 13.496094 C 31.644531 13.511719 31.695312 13.523438 31.746094 13.53125 L 31.824219 13.546875 L 31.902344 13.558594 L 31.90625 13.558594 C 32.097656 13.589844 32.230469 13.765625 32.199219 13.953125 Z M 32.199219 13.953125 " fill-opacity="0.2" fill-rule="nonzero"/></g><g clip-path="url(#4a16c9ce6c)"><path fill="#000000" d="M 31.84375 15.300781 C 31.824219 15.300781 31.804688 15.300781 31.785156 15.296875 C 31.769531 15.296875 31.75 15.292969 31.734375 15.289062 L 31.726562 15.289062 C 31.273438 15.203125 30.835938 15.03125 30.457031 14.785156 C 30.089844 14.550781 29.765625 14.242188 29.492188 13.875 C 29.246094 13.546875 29.042969 13.175781 28.882812 12.765625 C 28.820312 12.597656 28.761719 12.425781 28.71875 12.257812 C 28.699219 12.273438 28.679688 12.289062 28.65625 12.300781 L 28.578125 12.359375 L 28.496094 12.414062 C 28.449219 12.445312 28.40625 12.472656 28.363281 12.496094 L 28.320312 12.523438 L 28.308594 12.53125 C 28.253906 12.558594 28.203125 12.589844 28.144531 12.617188 C 28.097656 12.644531 28.046875 12.667969 27.996094 12.691406 L 27.964844 12.707031 C 27.90625 12.734375 27.84375 12.761719 27.78125 12.785156 C 27.71875 12.808594 27.65625 12.835938 27.59375 12.855469 C 27.527344 12.878906 27.460938 12.902344 27.402344 12.917969 C 27.339844 12.9375 27.277344 12.957031 27.210938 12.972656 C 27.140625 12.992188 27.078125 13.007812 27.011719 13.019531 C 26.933594 13.039062 26.871094 13.050781 26.8125 13.058594 C 26.75 13.070312 26.683594 13.082031 26.609375 13.089844 C 26.574219 13.09375 26.539062 13.097656 26.503906 13.101562 C 26.464844 13.105469 26.429688 13.109375 26.382812 13.109375 L 26.363281 13.109375 C 26.355469 13.109375 26.347656 13.109375 26.34375 13.109375 C 26.019531 13.109375 25.761719 12.859375 25.75 12.542969 C 25.746094 12.386719 25.800781 12.238281 25.910156 12.125 C 26.019531 12.011719 26.164062 11.945312 26.324219 11.9375 C 26.328125 11.9375 26.335938 11.9375 26.339844 11.9375 C 26.367188 11.9375 26.398438 11.941406 26.421875 11.945312 C 26.429688 11.945312 26.445312 11.945312 26.476562 11.949219 C 26.5 11.949219 26.523438 11.949219 26.546875 11.953125 C 26.574219 11.953125 26.597656 11.953125 26.625 11.953125 C 26.648438 11.953125 26.671875 11.953125 26.699219 11.953125 C 26.753906 11.949219 26.808594 11.945312 26.855469 11.945312 C 26.902344 11.941406 26.953125 11.9375 27.007812 11.929688 C 27.058594 11.925781 27.113281 11.917969 27.164062 11.910156 C 27.210938 11.902344 27.265625 11.894531 27.316406 11.882812 C 27.367188 11.871094 27.417969 11.863281 27.46875 11.847656 C 27.519531 11.835938 27.570312 11.824219 27.617188 11.808594 L 27.648438 11.800781 C 27.691406 11.785156 27.726562 11.773438 27.761719 11.761719 L 27.769531 11.761719 C 27.808594 11.746094 27.851562 11.730469 27.894531 11.714844 L 27.914062 11.707031 L 27.949219 11.691406 C 27.984375 11.675781 28.019531 11.664062 28.050781 11.648438 L 28.125 11.613281 L 28.195312 11.574219 C 28.230469 11.558594 28.269531 11.535156 28.304688 11.515625 L 28.328125 11.503906 C 28.339844 11.492188 28.355469 11.488281 28.367188 11.480469 C 28.398438 11.460938 28.429688 11.441406 28.457031 11.421875 C 28.46875 11.414062 28.476562 11.40625 28.484375 11.402344 C 28.496094 11.394531 28.511719 11.382812 28.523438 11.375 L 28.589844 11.328125 C 28.613281 11.308594 28.636719 11.289062 28.664062 11.265625 C 28.679688 11.253906 28.699219 11.238281 28.714844 11.226562 L 28.742188 11.203125 C 28.804688 11.152344 28.890625 11.125 28.972656 11.125 C 29.089844 11.125 29.195312 11.171875 29.265625 11.261719 C 29.3125 11.320312 29.339844 11.390625 29.347656 11.464844 C 29.375 11.613281 29.417969 11.773438 29.476562 11.941406 C 29.535156 12.105469 29.601562 12.265625 29.679688 12.425781 C 29.839844 12.746094 30.03125 13.03125 30.246094 13.273438 C 30.472656 13.527344 30.730469 13.726562 31.003906 13.871094 C 31.28125 14.015625 31.582031 14.105469 31.898438 14.136719 C 32.222656 14.167969 32.460938 14.453125 32.429688 14.773438 C 32.402344 15.074219 32.148438 15.300781 31.84375 15.300781 Z M 31.84375 15.300781 " fill-opacity="1" fill-rule="nonzero"/><path fill="#ffffff" d="M 32.191406 14.75 C 32.1875 14.78125 32.179688 14.8125 32.167969 14.839844 C 32.113281 14.984375 31.96875 15.078125 31.808594 15.0625 C 31.796875 15.058594 31.789062 15.058594 31.777344 15.054688 L 31.773438 15.054688 C 31.351562 14.976562 30.945312 14.816406 30.589844 14.585938 C 30.234375 14.355469 29.929688 14.0625 29.6875 13.734375 C 29.441406 13.40625 29.253906 13.050781 29.109375 12.679688 C 29.039062 12.492188 28.976562 12.304688 28.929688 12.113281 C 28.90625 12.015625 28.882812 11.917969 28.867188 11.816406 C 28.847656 11.835938 28.828125 11.855469 28.808594 11.871094 C 28.761719 11.914062 28.714844 11.953125 28.664062 11.996094 C 28.617188 12.035156 28.566406 12.074219 28.515625 12.109375 L 28.441406 12.164062 L 28.359375 12.214844 C 28.308594 12.25 28.253906 12.28125 28.199219 12.316406 C 28.144531 12.347656 28.089844 12.378906 28.035156 12.40625 C 27.980469 12.4375 27.921875 12.460938 27.863281 12.488281 C 27.808594 12.515625 27.75 12.539062 27.691406 12.5625 C 27.632812 12.589844 27.570312 12.609375 27.511719 12.632812 C 27.453125 12.652344 27.390625 12.671875 27.332031 12.691406 C 27.269531 12.710938 27.210938 12.726562 27.148438 12.742188 C 27.085938 12.757812 27.023438 12.773438 26.960938 12.789062 C 26.898438 12.800781 26.835938 12.8125 26.773438 12.824219 C 26.710938 12.835938 26.644531 12.84375 26.582031 12.851562 C 26.546875 12.855469 26.515625 12.859375 26.480469 12.863281 C 26.449219 12.867188 26.414062 12.867188 26.375 12.871094 L 26.355469 12.871094 C 26.160156 12.878906 26 12.726562 25.992188 12.535156 C 25.988281 12.460938 26.011719 12.390625 26.050781 12.332031 C 26.113281 12.242188 26.214844 12.179688 26.332031 12.175781 C 26.351562 12.175781 26.375 12.175781 26.390625 12.179688 C 26.410156 12.183594 26.4375 12.183594 26.464844 12.1875 C 26.488281 12.1875 26.515625 12.1875 26.542969 12.1875 C 26.597656 12.191406 26.652344 12.191406 26.707031 12.1875 C 26.761719 12.1875 26.816406 12.183594 26.871094 12.179688 C 26.925781 12.175781 26.980469 12.171875 27.035156 12.167969 C 27.089844 12.160156 27.144531 12.152344 27.199219 12.144531 C 27.253906 12.136719 27.308594 12.125 27.363281 12.117188 C 27.417969 12.105469 27.472656 12.09375 27.527344 12.078125 C 27.582031 12.066406 27.636719 12.050781 27.6875 12.035156 C 27.742188 12.019531 27.796875 12.003906 27.847656 11.984375 C 27.902344 11.96875 27.953125 11.949219 28.003906 11.925781 C 28.054688 11.90625 28.109375 11.886719 28.160156 11.859375 L 28.308594 11.789062 C 28.359375 11.761719 28.40625 11.734375 28.457031 11.707031 C 28.503906 11.675781 28.550781 11.648438 28.597656 11.613281 C 28.621094 11.597656 28.644531 11.582031 28.667969 11.566406 L 28.734375 11.515625 C 28.78125 11.484375 28.824219 11.445312 28.867188 11.410156 L 28.894531 11.390625 C 28.949219 11.34375 29.03125 11.355469 29.078125 11.410156 C 29.097656 11.433594 29.109375 11.460938 29.109375 11.492188 C 29.140625 11.667969 29.191406 11.847656 29.25 12.019531 C 29.3125 12.195312 29.382812 12.363281 29.464844 12.527344 C 29.625 12.855469 29.828125 13.164062 30.070312 13.429688 C 30.308594 13.699219 30.585938 13.921875 30.894531 14.082031 C 31.199219 14.242188 31.535156 14.339844 31.878906 14.371094 C 32.070312 14.390625 32.210938 14.558594 32.191406 14.75 Z M 32.191406 14.75 " fill-opacity="1" fill-rule="nonzero"/></g><g clip-path="url(#ef8bc51f52)"><path fill="#000000" d="M 32.191406 14.75 C 32.1875 14.78125 32.179688 14.8125 32.167969 14.839844 C 30.179688 14.5625 29.433594 13.082031 28.910156 11.554688 C 27.816406 12.511719 26.601562 12.433594 26.050781 12.332031 C 26.113281 12.242188 26.214844 12.179688 26.332031 12.175781 C 26.351562 12.175781 26.375 12.175781 26.390625 12.179688 C 26.410156 12.183594 26.4375 12.183594 26.464844 12.1875 C 26.488281 12.1875 26.515625 12.1875 26.542969 12.1875 C 26.597656 12.191406 26.652344 12.191406 26.707031 12.1875 C 26.761719 12.1875 26.816406 12.183594 26.871094 12.179688 C 26.925781 12.175781 26.980469 12.171875 27.035156 12.167969 C 27.089844 12.160156 27.144531 12.152344 27.199219 12.144531 C 27.253906 12.136719 27.308594 12.125 27.363281 12.117188 C 27.417969 12.105469 27.472656 12.09375 27.527344 12.078125 C 27.582031 12.066406 27.636719 12.050781 27.6875 12.035156 C 27.742188 12.019531 27.796875 12.003906 27.847656 11.984375 C 27.902344 11.96875 27.953125 11.949219 28.003906 11.925781 C 28.054688 11.90625 28.109375 11.886719 28.160156 11.859375 L 28.308594 11.789062 C 28.359375 11.761719 28.40625 11.734375 28.457031 11.707031 C 28.503906 11.675781 28.550781 11.648438 28.597656 11.613281 C 28.621094 11.597656 28.644531 11.582031 28.667969 11.566406 L 28.734375 11.515625 C 28.78125 11.484375 28.824219 11.445312 28.867188 11.410156 L 28.894531 11.390625 C 28.949219 11.34375 29.03125 11.355469 29.078125 11.410156 C 29.097656 11.433594 29.109375 11.460938 29.109375 11.492188 C 29.140625 11.667969 29.191406 11.847656 29.25 12.019531 C 29.3125 12.195312 29.382812 12.363281 29.464844 12.527344 C 29.625 12.855469 29.828125 13.164062 30.070312 13.429688 C 30.308594 13.699219 30.585938 13.921875 30.894531 14.082031 C 31.199219 14.242188 31.535156 14.339844 31.878906 14.371094 C 32.070312 14.390625 32.210938 14.558594 32.191406 14.75 Z M 32.191406 14.75 " fill-opacity="0.2" fill-rule="nonzero"/></g><g fill="#ffcf00" fill-opacity="1"><g transform="translate(28.911415, 21.197982)"><g><path d="M 0.578125 0 L 3.394531 0 C 4.507812 0 5.28125 -0.628906 5.28125 -1.527344 C 5.28125 -2.109375 4.96875 -2.578125 4.453125 -2.804688 C 4.875 -3.046875 5.117188 -3.488281 5.117188 -4.011719 C 5.117188 -4.914062 4.398438 -5.484375 3.253906 -5.484375 L 0.578125 -5.484375 Z M 2.132812 -1.175781 L 2.132812 -2.203125 L 3.089844 -2.203125 C 3.464844 -2.203125 3.675781 -2.015625 3.675781 -1.691406 C 3.675781 -1.363281 3.464844 -1.175781 3.089844 -1.175781 Z M 2.132812 -3.332031 L 2.132812 -4.320312 L 2.953125 -4.320312 C 3.324219 -4.320312 3.527344 -4.136719 3.527344 -3.824219 C 3.527344 -3.503906 3.324219 -3.332031 2.953125 -3.332031 Z M 2.132812 -3.332031 "/></g></g></g><g fill="#ffcf00" fill-opacity="1"><g transform="translate(34.922718, 21.197982)"><g><path d="M 0.578125 0 L 4.429688 0 L 4.429688 -1.292969 L 2.148438 -1.292969 L 2.148438 -2.140625 L 4.128906 -2.140625 L 4.128906 -3.410156 L 2.148438 -3.410156 L 2.148438 -4.207031 L 4.34375 -4.207031 L 4.34375 -5.484375 L 0.578125 -5.484375 Z M 0.578125 0 "/></g></g></g><g fill="#ffcf00" fill-opacity="1"><g transform="translate(40.205138, 21.197982)"><g><path d="M 0.578125 0 L 4.429688 0 L 4.429688 -1.292969 L 2.148438 -1.292969 L 2.148438 -2.140625 L 4.128906 -2.140625 L 4.128906 -3.410156 L 2.148438 -3.410156 L 2.148438 -4.207031 L 4.34375 -4.207031 L 4.34375 -5.484375 L 0.578125 -5.484375 Z M 0.578125 0 "/></g></g></g><g fill="#ffcf00" fill-opacity="1"><g transform="translate(45.487557, 21.197982)"><g/></g></g><g fill="#ffcf00" fill-opacity="1"><g transform="translate(47.799592, 21.197982)"><g><path d="M 3.144531 0.117188 C 4.65625 0.117188 5.800781 -0.800781 6.035156 -2.195312 L 4.429688 -2.195312 C 4.230469 -1.675781 3.769531 -1.347656 3.175781 -1.347656 C 2.40625 -1.347656 1.875 -1.921875 1.875 -2.742188 C 1.875 -3.574219 2.414062 -4.136719 3.191406 -4.136719 C 3.761719 -4.136719 4.238281 -3.816406 4.40625 -3.324219 L 6.003906 -3.324219 C 5.722656 -4.710938 4.59375 -5.605469 3.128906 -5.605469 C 1.433594 -5.605469 0.265625 -4.4375 0.265625 -2.742188 C 0.265625 -1.050781 1.433594 0.117188 3.144531 0.117188 Z M 3.144531 0.117188 "/></g></g></g><g fill="#ffcf00" fill-opacity="1"><g transform="translate(54.586795, 21.197982)"><g><path d="M 3.855469 0 L 5.4375 0 L 5.4375 -5.484375 L 3.855469 -5.484375 L 3.855469 -3.519531 L 2.164062 -3.519531 L 2.164062 -5.484375 L 0.578125 -5.484375 L 0.578125 0 L 2.164062 0 L 2.164062 -2.0625 L 3.855469 -2.0625 Z M 3.855469 0 "/></g></g></g><g fill="#ffcf00" fill-opacity="1"><g transform="translate(61.107524, 21.197982)"><g><path d="M 0.0390625 0 L 1.714844 0 L 2.015625 -0.777344 L 3.886719 -0.777344 L 4.183594 0 L 5.871094 0 L 3.738281 -5.484375 L 2.171875 -5.484375 Z M 2.34375 -1.9375 L 2.953125 -3.636719 L 3.566406 -1.9375 Z M 2.34375 -1.9375 "/></g></g></g><g fill="#ffcf00" fill-opacity="1"><g transform="translate(67.518531, 21.197982)"><g><path d="M 1.890625 0 L 3.464844 0 L 3.464844 -4.019531 L 5.132812 -4.019531 L 5.132812 -5.484375 L 0.21875 -5.484375 L 0.21875 -4.019531 L 1.890625 -4.019531 Z M 1.890625 0 "/></g></g></g></svg>